<?xml version="1.0" encoding="utf-8"?>
<!-- Generator: Adobe Illustrator 18.1.1, SVG Export Plug-In . SVG Version: 6.00 Build 0)  -->
<svg version="1.1" id="Layer_1" xmlns="http://www.w3.org/2000/svg" xmlns:xlink="http://www.w3.org/1999/xlink" x="0px" y="0px"
	 viewBox="0 0 634 505.7" style="enable-background:new 0 0 634 505.7;" xml:space="preserve">
<style type="text/css">
	.st0{fill:#C69C6D;}
	.st1{fill:#666666;}
	.st2{fill:#B3B3B3;}
	.st3{fill:#FF0000;}
	.st4{fill:#E6E6E6;}
	.st5{fill:#999999;}
	.st6{fill:#603813;}
	.st7{fill:#754C24;}
	.st8{fill:#42210B;}
	.st9{fill:#39B54A;}
	.st10{fill:#035E2A;}
</style>
<g>
	<circle class="st0" cx="468.4" cy="58.9" r="19.9"/>
	<g>
		<path class="st1" d="M482.6,66h-31.2c-1.4,0-2.5-1.1-2.5-2.5L437.3,3.8c0-1.4,0.7-2.5,1.5-2.5h19.5c0.8,0,1.5,1.1,1.5,2.5
			L485,63.5C485,64.8,483.9,66,482.6,66z"/>
		<path class="st2" d="M482.6,67.3h-31.2c-2.1,0-3.8-1.6-3.8-3.7L435.9,4V3.8c0-2.2,1.3-3.8,2.9-3.8h19.5c1.6,0,2.8,1.5,2.9,3.5
			l25.1,59.7v0.3C486.4,65.6,484.7,67.3,482.6,67.3z M438.7,3.7l11.6,59.6v0.1c0,0.6,0.5,1.1,1.1,1.1h31.2c0.5,0,1-0.4,1.1-0.9
			L458.5,4.1V3.8c0-0.6-0.2-0.9-0.3-1.1H439C438.9,2.9,438.7,3.2,438.7,3.7z"/>
	</g>
	<path class="st0" d="M496.4,155.2L496.4,155.2c-6.8,1.6-13.8-2.7-15.4-9.5l-16-64.1c-1.6-6.8-1.5-12.8,5.3-14.4l0,0
		c6.8-1.6,9.6,3.6,11.2,10.5l24.4,62.1C507.5,146.7,503.2,153.6,496.4,155.2z"/>
	<circle class="st3" cx="461.2" cy="45.1" r="7.2"/>
	<path class="st0" d="M483.6,68l-5.4-14.6l-9.8-12.8c0,0-7.7,7.4-2.4,13.8c5.3,6.4,3.4,17,3.4,17L483.6,68z"/>
</g>
<path class="st4" d="M634,416.8c0,42.1-141.9,88.9-317,88.9S0,458.9,0,416.8s141.9-101.6,317-101.6S634,374.7,634,416.8z"/>
<path class="st2" d="M590.8,415.4c0,32.8-122.6,61.8-273.8,61.8s-273.8-29-273.8-61.8s122.6-79.1,273.8-79.1
	S590.8,382.6,590.8,415.4z"/>
<path class="st5" d="M535.8,413.9c0,23.1-97.9,41.3-218.8,41.3S98.3,437,98.3,413.9c0-23.1,97.9-55.7,218.8-55.7
	S535.8,390.8,535.8,413.9z"/>
<path class="st6" d="M77.1,418.7L77.1,418.7c-4.1,0-7.4-3.3-7.4-7.4l-2.4-16.7c0-5.4,4.4-9.8,9.8-9.8h0c5.4,0,9.8,4.4,9.8,9.8
	l-2.4,16.7C84.5,415.4,81.2,418.7,77.1,418.7z"/>
<path class="st6" d="M556.4,418.7L556.4,418.7c-4.1,0-7.4-3.3-7.4-7.4l-2.4-16.7c0-5.4,4.4-9.8,9.8-9.8l0,0c5.4,0,9.8,4.4,9.8,9.8
	l-2.4,16.7C563.8,415.4,560.5,418.7,556.4,418.7z"/>
<path class="st7" d="M432.4,131.4c0,25.6-20.8,46.4-46.4,46.4s-46.4-20.8-46.4-46.4s13.2-32.4,46.4-46.4c2.7-1.1,9.1-7.7,11.8-7.2
	c2.3,0.4,1.3,9,3.5,9.8c1.6,0.6,11.4-5.7,12.9-5c3,1.4-2.6,10,0,12c1.5,1.1,6.6-5.6,8-4.3c1.3,1.3-1.2,10.6,0,12.1
	C428.5,110.2,432.4,120.3,432.4,131.4z"/>
<ellipse class="st6" cx="385.9" cy="131.4" rx="36.2" ry="27.9"/>
<ellipse class="st8" cx="385.9" cy="131.4" rx="28.2" ry="15"/>
<path class="st9" d="M31.2,274.2l33.2-51.4c0,0,14.7-19.5,44.7,0v75.7L31.2,274.2z"/>
<path class="st9" d="M604.4,280.4l-34.3-57.6c0,0-15.2-19.5-45.2,0v75.7L604.4,280.4z"/>
<path class="st10" d="M609.8,296.1c0-24.4-20-47.9-44.4-47.9H547c0,0,4.9-10.8,4.9-29.8s-18.4-44.2-45.9-44.2
	c-13.9,0-141.3,19.2-192.5,19.2c-50.1,0-175-17.9-187.7-17.9c-25.8,0-45.9,19.4-45.9,42.7s4.9,30,4.9,30h-17
	c-33.1,0-44.4,31.8-44.4,49.2l6.2,45.7c0,5.2,0.9,10.6,2.6,15.2c5.7,30,34.6,40.9,69.2,40.9c0,0,94.3,20.1,212.2,20.1
	c117.9,0,216.9-19.9,216.9-19.9c31.4,0,58.2-8.7,67.1-32.7c4-6.6,6.3-16.1,6.3-24.3L609.8,296.1z"/>
<g>
	<polygon class="st9" points="81.2,248.2 79,220 79,248.2 	"/>
	<path class="st9" d="M123.1,175.8c12.6,0,135.7,18.1,185.2,18.1c50.7,0,180.1-18.8,193.9-18.8c27.3,0,49.6,18.1,49.6,43.4
		l-0.9-34.2c0-25.3-21.8-45.9-49.1-45.9c-27.3,0-31.4,4.4-31.4,4.4s-22.6-13.6-44-13.6S382.9,140,382.9,140s-16.6-6.2-37.2-10.8
		c-35.4-7.9-85.9,9.3-85.9,9.3s-37.9-16.7-57.5-15.2c-32.1,2.5-49.8,19.5-49.8,19.5s-3.9-4.4-29.5-4.4C97.6,138.4,79,159,79,184.3
		V220C79,194.7,97.6,175.8,123.1,175.8z"/>
</g>
</svg>
